<svg width="34" height="38" viewBox="0 0 34 38" fill="none" xmlns="http://www.w3.org/2000/svg">
<g clip-path="url(#clip0_4_22)">
<path d="M12.8551 34.4132C13.6078 34.4132 14.2181 33.7218 14.2181 32.869C14.2181 32.0162 13.6078 31.3249 12.8551 31.3249C12.1024 31.3249 11.4921 32.0162 11.4921 32.869C11.4921 33.7218 12.1024 34.4132 12.8551 34.4132Z" stroke="#3D3D3D" stroke-width="2.64711" stroke-linecap="round" stroke-linejoin="round"/>
<path d="M27.8478 34.4132C28.6006 34.4132 29.2108 33.7218 29.2108 32.869C29.2108 32.0162 28.6006 31.3249 27.8478 31.3249C27.0951 31.3249 26.4849 32.0162 26.4849 32.869C26.4849 33.7218 27.0951 34.4132 27.8478 34.4132Z" stroke="#3D3D3D" stroke-width="2.64711" stroke-linecap="round" stroke-linejoin="round"/>
<path d="M1.95129 1.98627H7.40319L11.056 22.6624C11.1806 23.3733 11.522 24.0119 12.0203 24.4664C12.5187 24.9209 13.1423 25.1623 13.7819 25.1484H27.03C27.6697 25.1623 28.2932 24.9209 28.7916 24.4664C29.2899 24.0119 29.6313 23.3733 29.756 22.6624L31.9367 9.70699H8.76616" stroke="#3D3D3D" stroke-width="2.64711" stroke-linecap="round" stroke-linejoin="round"/>
</g>
<defs>
<clipPath id="clip0_4_22">
<rect width="32.7114" height="37.0595" fill="white" transform="translate(0.588257 0.442078)"/>
</clipPath>
</defs>
</svg>
